<?xml version="1.0" standalone="no"?><!DOCTYPE svg PUBLIC "-//W3C//DTD SVG 1.1//EN" "http://www.w3.org/Graphics/SVG/1.1/DTD/svg11.dtd"><svg t="1584942727924" class="icon" viewBox="0 0 1103 1024" version="1.1" xmlns="http://www.w3.org/2000/svg" p-id="2950" xmlns:xlink="http://www.w3.org/1999/xlink" width="215.4296875" height="200"><defs><style type="text/css"></style></defs><path d="M110.214892 240.469765c-16.030984 0-30.057971 14.026986-30.05797 30.057971v280.547726c0 16.031984 14.026986 30.058971 30.05797 30.05897s30.058971-14.026986 30.058971-30.05897V270.527736c0-16.029984-14.026986-30.057971-30.058971-30.057971zM30.059971 320.625687C14.026986 320.625687 0 334.653673 0 350.684658V470.91954c0 16.030984 14.026986 30.057971 30.058971 30.057971s30.057971-14.026986 30.05797-30.057971V350.684658c0-16.030984-14.026986-30.058971-30.05797-30.058971z m961.87706-80.155922c-16.029984 0-30.057971 14.026986-30.05797 30.057971v280.547726c0 16.031984 14.026986 30.058971 30.05797 30.05897s30.059971-14.026986 30.059971-30.05897V270.527736c0-16.029984-14.027986-30.057971-30.059971-30.057971zM905.769115 120.234883h-204.3998V36.069965C701.369315 16.030984 685.339331 0 667.303348 0H434.849575c-20.03898 0-34.065967 16.030984-34.065966 36.069965v84.164918H194.37981c-18.035982 0-34.066967 16.030984-34.066967 34.065966V665.29935c0 20.03998 16.030984 36.069965 36.069965 36.069965h204.399801v60.117941h-86.168916c-20.03898 0-34.065967 16.031984-34.065967 36.069965V987.929035c0 20.03898 16.030984 36.069965 34.065967 36.069965h470.91954c20.03998 0 34.066967-16.030984 34.066967-36.069965V797.557221c0-20.03998-16.031984-36.069965-34.066967-36.069965H701.369315V701.369315h206.402799c20.03998 0 36.069965-16.030984 36.069964-36.069965V154.299849c-2.002998-20.03898-18.034982-34.065967-38.073963-34.065966zM460.89955 60.116941h180.351824v60.117942H460.89955V60.116941z m300.586706 761.487257v140.273863H340.664667V821.604198h118.230885V701.369315H639.249376v120.234883h122.23788z m120.234883-214.419791c0 20.03998-16.030984 34.066967-34.065967 34.066967H254.496751c-20.03998 0-34.065967-16.029984-34.065966-34.065967V214.418791c0-20.03998 16.029984-34.066967 34.065966-34.066967h591.154423c20.03898 0 34.065967 16.031984 34.065967 34.066967v392.766616zM701.369315 300.587706c-56.109945 0-100.195902 44.085957-100.195902 100.195903S645.25937 500.977511 701.369315 500.977511s100.195902-44.085957 100.195902-100.194902-44.086957-100.195902-100.195902-100.195903z m0 140.273863c-22.042978 0-40.077961-18.034982-40.077961-40.07796s18.034982-40.077961 40.077961-40.077961 40.077961 18.034982 40.077961 40.077961-18.034982 40.077961-40.077961 40.07796zM400.782609 300.586706c-56.109945 0-100.195902 44.085957-100.195903 100.195903s44.085957 100.194902 100.195903 100.194902 100.194902-44.085957 100.194902-100.194902-44.085957-100.195902-100.194902-100.195903z m0 140.273863c-22.042978 0-40.077961-18.034982-40.077961-40.07796s18.034982-40.077961 40.077961-40.077961 40.077961 18.034982 40.07796 40.077961-18.034982 40.077961-40.07796 40.07796z m671.309344-120.234882c-16.029984 0-30.057971 14.027986-30.057971 30.058971V470.91954c0 16.030984 14.027986 30.057971 30.058971 30.057971s30.058971-14.026986 30.058971-30.057971V350.684658c0-16.030984-14.027986-30.058971-30.059971-30.058971z" p-id="2951"></path></svg>